<?xml version="1.0" encoding="UTF-8" standalone="no"?>
<svg
   xmlns:dc="http://purl.org/dc/elements/1.1/"
   xmlns:cc="http://creativecommons.org/ns#"
   xmlns:rdf="http://www.w3.org/1999/02/22-rdf-syntax-ns#"
   xmlns:svg="http://www.w3.org/2000/svg"
   xmlns="http://www.w3.org/2000/svg"
   version="1.1"
   id="svg930"
   width="234.65877"
   height="266.30099"
   viewBox="0 0 234.65877 266.30099">
  <metadata
     id="metadata936">
    <rdf:RDF>
      <cc:Work
         rdf:about="">
        <dc:format>image/svg+xml</dc:format>
        <dc:type
           rdf:resource="http://purl.org/dc/dcmitype/StillImage" />
        <dc:title></dc:title>
      </cc:Work>
    </rdf:RDF>
  </metadata>
  <defs
     id="defs934" />
  <g
     id="g938"
     transform="translate(-906.38002,-324.5)">
    <path
       style="fill:#abffc8;fill-opacity:1"
       d="m 983.68177,548.03629 c -80.1075,-46.53268 -76.6211,-44.02824 -74.5321,-53.53953 2.1576,-9.82332 2.2213,-9.83325 59.2913,-9.23732 58.69373,0.61289 47.93443,-5.50476 76.17503,43.31236 29.6787,51.30312 29.2076,50.05563 21.4672,56.85181 -7.4491,6.5404 -4.3848,7.93075 -82.40143,-37.38732 z m 136.46723,-0.40332 c -6.3474,-3.93443 -52.3145,-86.71204 -51.0332,-91.90062 1.1044,-4.47264 47.524,-84.07997 50.3015,-86.26477 5.4179,-4.26165 13.5308,-3.19555 17.61,2.31408 2.6347,3.55856 2.704,166.72467 0.073,171.81247 -2.7659,5.34876 -11.4861,7.42644 -16.9513,4.03884 z M 914.53047,427.99691 c -8.0969,-4.40019 -7.3505,-16.21691 1.3671,-21.64318 C 944.31537,388.66509 1055.0966,326.5 1058.2008,326.5 c 6.8787,0 12.4482,5.42509 12.4482,12.12536 0,4.62985 -47.8915,86.78865 -52.0077,89.22011 -3.9275,2.32003 -99.86363,2.45958 -104.11083,0.15144 z"
       id="path942" />
  </g>
</svg>
